# xmcd
#
# Track frame offsets:
#	150
#	13295
#	25548
#	41900
#	54538
#	66634
#	77855
#	89256
#	103253
#	123695
#	142355
#	158667
#
# Disc length: 2248 seconds
#
# Revision: 1
# Processed by: cddbd v1.5.2PL0 Copyright (c) Steve Scherf et al.
# Submitted via: EasyCDDAExtractor 11.5.3.1
#
DISCID=b108c60c
DTITLE=Eilen Jewell - Letters From Sinners and Strangers
DYEAR=2007
DGENRE=Country
TTITLE0=Rich Man's World
TTITLE1=Dusty Boxcar Wall
TTITLE2=High Shelf Booze
TTITLE3=Thanks a Lot
TTITLE4=Heartache Boulevard
TTITLE5=Too Hot to Sleep
TTITLE6=Where They Never Say Your Name
TTITLE7=How Long
TTITLE8=In the End
TTITLE9=If You Catch Me Stealing
TTITLE10=Walking Down the Line
TTITLE11=Blue Highway
EXTD=
EXTT0=
EXTT1=
EXTT2=
EXTT3=
EXTT4=
EXTT5=
EXTT6=
EXTT7=
EXTT8=
EXTT9=
EXTT10=
EXTT11=
PLAYORDER=
